<svg width="866" height="266" viewBox="0 0 866 266" fill="none" xmlns="http://www.w3.org/2000/svg">
<path fill-rule="evenodd" clip-rule="evenodd" d="M49.6775 136.874C50.2166 133.241 51.4666 129.656 53.4852 126.315C53.4883 126.31 53.4925 126.309 53.4966 126.308L55.889 122.333L71.7776 95.913L80.8316 80.9416L116.412 22.0841C125.525 7.01448 145.179 2.25015 160.197 11.4718L160.281 11.5256C175.371 20.7866 180.159 40.4823 171.002 55.6202L134.643 115.726C130.214 123.042 132.576 132.566 139.914 136.985L139.919 136.988L200.227 173.298C215.64 182.588 220.387 202.804 210.544 218.033C201.025 232.76 180.946 236.421 165.914 227.375L108.825 193.002L93.5021 183.777L67.0716 167.943L63.1641 165.501C59.8939 163.533 57.1723 160.998 55.024 158.118C50.4937 152.038 48.5599 144.368 49.6775 136.874Z" fill="#1BD741"/>
<path fill-rule="evenodd" clip-rule="evenodd" d="M167.878 107.467C165.694 104.512 162.904 101.933 159.55 99.9288C159.545 99.9257 159.541 99.9267 159.537 99.9277L155.555 97.5394L129.099 81.6589L114.063 72.6834L54.9637 37.3913C39.8293 28.3568 20.2354 33.3611 11.3127 48.5415L11.264 48.6283C2.29684 63.877 7.33338 83.5109 22.5391 92.5848L82.9131 128.614C90.2646 132.999 92.6593 142.514 88.2586 149.854L88.2555 149.86L52.0869 210.182C42.8475 225.608 48.1654 245.682 64.019 254.515C79.3511 263.057 98.8015 256.88 107.818 241.847L142.056 184.743L151.246 169.417L167.134 143.05L169.436 139.063C171.398 135.793 172.608 132.279 173.15 128.73C174.291 121.239 172.39 113.56 167.878 107.467Z" fill="white"/>
<path fill-rule="evenodd" clip-rule="evenodd" d="M304.357 129.244C311.961 129.244 316.273 125.573 316.273 118.988C316.273 112.147 312.343 108.728 304.357 108.728H285.553C284.103 108.728 282.931 109.902 282.931 111.351V126.621C282.931 128.07 284.103 129.244 285.553 129.244H304.357ZM282.931 75.8915V89.8977C282.931 91.3434 284.103 92.5172 285.553 92.5172H302.963C309.552 92.5172 313.359 88.7172 313.359 82.6393C313.359 76.9426 309.552 73.2687 302.963 73.2687H285.553C284.103 73.2687 282.931 74.4425 282.931 75.8915ZM338.33 120.125C338.33 136.336 327.429 146.34 305.625 146.34H264.131C262.68 146.34 261.508 145.166 261.508 143.721V58.7916C261.508 57.3459 262.68 56.1721 264.131 56.1721H304.357C325.149 56.1721 334.655 66.0501 334.655 79.2206C334.655 86.5752 331.943 92.1525 326.583 96.0154C325.106 97.0798 325.189 99.3744 326.759 100.293C334.184 104.64 338.33 112.247 338.33 120.125Z" fill="white"/>
<path fill-rule="evenodd" clip-rule="evenodd" d="M392.602 113.618C392.602 101.459 387.404 95.2547 378.402 95.2547C369.274 95.2547 364.076 101.459 364.076 113.618C364.076 125.777 369.274 131.981 378.402 131.981C387.404 131.981 392.602 125.777 392.602 113.618ZM353.428 138.437C347.214 132.233 344.048 124.003 344.048 113.618C344.048 103.233 347.214 94.8734 353.428 88.6694C359.639 82.4622 367.88 79.4215 378.402 79.4215C388.798 79.4215 397.163 82.4622 403.377 88.6694C409.587 94.8734 412.631 103.233 412.631 113.618C412.631 124.003 409.587 132.233 403.377 138.437C397.163 144.644 388.798 147.811 378.402 147.811C367.88 147.811 359.639 144.644 353.428 138.437Z" fill="white"/>
<path fill-rule="evenodd" clip-rule="evenodd" d="M460.794 120.641V115.826C459.652 117.093 457.372 117.981 454.205 118.363L446.09 119.248C439.75 119.881 436.58 122.541 436.58 127.1C436.58 131.659 440.132 134.571 446.216 134.571C454.71 134.571 460.794 130.263 460.794 120.641ZM464.598 146.349C463.466 146.349 462.447 145.642 462.095 144.565C461.597 143.053 461.265 141.212 461.176 139.004C456.738 144.956 449.767 147.867 440.258 147.867C426.058 147.867 416.425 140.523 416.425 127.859C416.425 116.081 423.907 108.989 442.033 107.47L452.3 106.581C458.006 105.948 460.794 104.177 460.794 100.125C460.794 95.6922 457.501 93.5402 450.78 93.5402C443.696 93.5402 440.6 95.1318 439.551 100.092C439.295 101.289 438.23 102.151 437.005 102.151H422.576C420.926 102.151 419.698 100.639 419.983 99.018C422.277 86.0265 432.55 79.481 450.906 79.481C470.304 79.481 480.066 86.1922 480.066 99.6181V134.319C480.066 137.77 480.421 140.658 481.135 142.96C481.656 144.651 480.418 146.349 478.645 146.349H464.598Z" fill="white"/>
<path fill-rule="evenodd" clip-rule="evenodd" d="M522.845 95.4081H515.539C514.088 95.4081 512.917 96.5819 512.917 98.0309V125.931C512.917 130.49 514.941 131.627 520.395 131.627H522.845C524.295 131.627 525.467 132.801 525.467 134.25V143.969C525.467 145.345 524.411 146.472 523.041 146.588C520.996 146.761 518.765 146.824 516.339 146.824C499.985 146.824 493.14 141.379 493.14 128.083V98.0309C493.14 96.5819 491.965 95.4081 490.518 95.4081H485.997C484.55 95.4081 483.375 94.2343 483.375 92.7853V83.5937C483.375 82.1447 484.55 80.9709 485.997 80.9709H490.518C491.965 80.9709 493.14 79.797 493.14 78.348V64.2158C493.14 62.7701 494.312 61.5963 495.763 61.5963H510.295C511.742 61.5963 512.917 62.7701 512.917 64.2158V78.348C512.917 79.797 514.088 80.9709 515.539 80.9709H522.845C524.295 80.9709 525.467 82.1447 525.467 83.5937V92.7853C525.467 94.2343 524.295 95.4081 522.845 95.4081Z" fill="white"/>
<path fill-rule="evenodd" clip-rule="evenodd" d="M578.094 80.9716H592.875C594.684 80.9716 595.949 82.7522 595.354 84.4565L572.866 148.85C569.949 157.21 566.271 163.036 561.581 166.328C556.891 169.621 549.794 171.266 540.284 171.266C538.635 171.266 536.862 171.206 535.053 171.13C533.652 171.07 532.55 169.913 532.55 168.51V158.437C532.55 156.991 533.726 155.817 535.173 155.817H538.887C545.482 155.817 548.778 152.776 548.778 146.698C548.778 144.039 547.763 139.735 545.735 134.035L528.209 84.4665C527.605 82.7588 528.873 80.9716 530.682 80.9716H546.345C547.491 80.9716 548.503 81.7143 548.845 82.8052L551.188 90.2162C554.501 101.348 557.349 111.673 559.772 121.103C560.456 123.739 564.193 123.733 564.857 121.087C567.244 111.58 570.008 101.331 573.245 90.3422L575.588 82.8152C575.93 81.7176 576.942 80.9716 578.094 80.9716Z" fill="white"/>
<path fill-rule="evenodd" clip-rule="evenodd" d="M639.049 120.641V115.826C637.907 117.093 635.627 117.981 632.46 118.363L624.344 119.248C618.005 119.881 614.835 122.541 614.835 127.1C614.835 131.659 618.386 134.571 624.471 134.571C632.965 134.571 639.049 130.263 639.049 120.641ZM642.853 146.349C641.721 146.349 640.702 145.642 640.35 144.565C639.852 143.053 639.52 141.212 639.431 139.004C634.993 144.956 628.022 147.867 618.512 147.867C604.312 147.867 594.68 140.523 594.68 127.859C594.68 116.081 602.162 108.989 620.288 107.47L630.555 106.581C636.261 105.948 639.049 104.177 639.049 100.125C639.049 95.6922 635.756 93.5402 629.035 93.5402C621.951 93.5402 618.854 95.1318 617.805 100.092C617.55 101.289 616.484 102.151 615.26 102.151H600.831C599.181 102.151 597.953 100.639 598.238 99.018C600.532 86.0265 610.805 79.481 629.161 79.481C648.559 79.481 658.321 86.1922 658.321 99.6181V134.319C658.321 137.77 658.676 140.658 659.389 142.96C659.911 144.651 658.672 146.349 656.9 146.349H642.853Z" fill="white"/>
<path fill-rule="evenodd" clip-rule="evenodd" d="M709.776 80.2133V95.5757C709.776 97.0214 708.601 98.1952 707.154 98.1952H704.708C693.17 98.1952 687.338 104.147 687.338 115.928V143.699C687.338 145.148 686.166 146.322 684.716 146.322H670.184C668.737 146.322 667.562 145.148 667.562 143.699V83.5955C667.562 82.1465 668.737 80.9727 670.184 80.9727H684.211C685.658 80.9727 686.833 82.1465 686.833 83.5955C686.833 85.9365 689.705 87.1203 691.311 85.4126C694.723 81.7884 699.443 79.958 705.468 79.958C706.48 79.958 707.878 80.0873 709.776 80.2133Z" fill="white"/>
<path fill-rule="evenodd" clip-rule="evenodd" d="M759.459 113.669C759.459 101.384 754.768 95.3058 745.388 95.3058C736.639 95.3058 731.444 101.891 731.444 114.173C731.444 126.08 736.134 132.032 745.388 132.032C754.768 132.032 759.459 125.954 759.459 113.669ZM761.702 56.1721H776.234C777.681 56.1721 778.857 57.3459 778.857 58.795V143.721C778.857 145.17 777.681 146.343 776.234 146.343H762.207C760.76 146.343 759.585 145.17 759.585 143.721V137.855C755.147 144.57 748.558 147.862 739.935 147.862C731.188 147.862 724.218 144.822 719.143 138.618C713.948 132.41 711.412 124.18 711.412 113.669C711.412 103.158 713.948 94.9245 719.143 88.7206C724.218 82.5133 731.188 79.4726 739.935 79.4726C745.803 79.4726 750.772 81.0808 754.749 84.2475C756.504 85.6434 759.08 84.5127 759.08 82.2712V58.795C759.08 57.3459 760.252 56.1721 761.702 56.1721Z" fill="white"/>
<path fill-rule="evenodd" clip-rule="evenodd" d="M837.128 101.573L864.579 142.258C865.75 143.996 864.502 146.34 862.398 146.34H843.893C843.013 146.34 842.193 145.903 841.709 145.17L835.004 135.073C831.515 129.887 828.412 125.092 825.58 120.632C824.551 119.011 822.185 119.011 821.159 120.636C818.802 124.369 815.652 129.167 811.805 135.073L805.107 145.17C804.619 145.903 803.799 146.34 802.916 146.34H784.952C782.845 146.34 781.6 143.983 782.785 142.245L810.305 101.954C810.909 101.072 810.916 99.9149 810.325 99.0296L784.591 60.2407C783.432 58.4999 784.684 56.1721 786.775 56.1721H805.187C806.076 56.1721 806.903 56.6198 807.384 57.3625L813.379 66.564C813.429 66.6436 813.458 66.7 813.505 66.7862C813.906 67.5521 816.665 71.9025 821.707 79.8308C822.746 81.4655 825.165 81.4555 826.181 79.8109C829.696 74.1175 832.494 69.7406 834.499 66.6834L840.693 57.3459C841.181 56.6131 842.001 56.1721 842.877 56.1721H860.536C862.63 56.1721 863.882 58.5032 862.716 60.2473L837.118 98.6549C836.531 99.5402 836.534 100.691 837.128 101.573Z" fill="white"/>
<path d="M275.748 198.44L272.246 188.251L268.525 198.44H275.748ZM270.613 184.828H274.146L282.515 207.892H279.092L276.752 200.984H267.63L265.134 207.892H261.931L270.613 184.828Z" fill="white"/>
<path d="M294.842 184.828H298.532L310.182 203.512V184.828H313.149V207.892H309.648L297.825 189.224V207.892H294.842V184.828Z" fill="white"/>
<path d="M346.299 184.828H363.114V187.654H349.345V194.656H362.078V197.326H349.345V205.145H363.35V207.892H346.299V184.828Z" fill="white"/>
<path d="M387.657 195.394C389.123 195.394 390.279 195.101 391.127 194.515C391.985 193.929 392.415 192.872 392.415 191.344C392.415 189.7 391.818 188.58 390.625 187.984C389.986 187.67 389.133 187.513 388.065 187.513H380.435V195.394H387.657ZM377.31 184.828H387.987C389.745 184.828 391.195 185.084 392.336 185.597C394.503 186.581 395.586 188.397 395.586 191.045C395.586 192.427 395.298 193.557 394.723 194.437C394.157 195.316 393.362 196.022 392.336 196.556C393.236 196.923 393.911 197.404 394.361 198.001C394.822 198.597 395.078 199.566 395.131 200.905L395.241 203.998C395.272 204.878 395.345 205.532 395.461 205.961C395.649 206.694 395.984 207.165 396.465 207.374V207.892H392.634C392.53 207.693 392.446 207.437 392.383 207.123C392.32 206.809 392.268 206.202 392.226 205.302L392.038 201.455C391.965 199.948 391.405 198.938 390.358 198.425C389.761 198.142 388.824 198.001 387.547 198.001H380.435V207.892H377.31V184.828Z" fill="white"/>
<path d="M419.627 184.231C421.793 184.231 423.667 184.65 425.247 185.487C427.54 186.691 428.942 188.8 429.455 191.815H426.362C425.985 190.129 425.206 188.905 424.023 188.141C422.84 187.366 421.348 186.979 419.548 186.979C417.413 186.979 415.612 187.779 414.147 189.381C412.692 190.982 411.965 193.369 411.965 196.541C411.965 199.283 412.566 201.518 413.77 203.245C414.974 204.961 416.937 205.82 419.658 205.82C421.741 205.82 423.463 205.218 424.824 204.014C426.195 202.8 426.896 200.843 426.927 198.142H419.705V195.551H429.832V207.892H427.822L427.069 204.925C426.012 206.087 425.075 206.893 424.258 207.343C422.887 208.117 421.144 208.505 419.03 208.505C416.298 208.505 413.948 207.62 411.98 205.851C409.835 203.632 408.762 200.586 408.762 196.713C408.762 192.851 409.808 189.779 411.902 187.497C413.891 185.32 416.465 184.231 419.627 184.231Z" fill="white"/>
<path d="M454.124 184.2C458.195 184.2 461.21 185.508 463.167 188.125C464.696 190.166 465.46 192.778 465.46 195.96C465.46 199.403 464.586 202.266 462.838 204.548C460.786 207.228 457.861 208.567 454.061 208.567C450.513 208.567 447.723 207.395 445.692 205.05C443.882 202.789 442.976 199.932 442.976 196.478C442.976 193.359 443.751 190.689 445.3 188.47C447.289 185.623 450.23 184.2 454.124 184.2ZM454.438 205.773C457.191 205.773 459.179 204.789 460.404 202.821C461.639 200.843 462.257 198.571 462.257 196.007C462.257 193.296 461.545 191.113 460.121 189.459C458.708 187.806 456.772 186.979 454.312 186.979C451.926 186.979 449.979 187.8 448.471 189.444C446.964 191.077 446.211 193.489 446.211 196.682C446.211 199.236 446.854 201.392 448.142 203.151C449.44 204.899 451.538 205.773 454.438 205.773Z" fill="white"/>
<path d="M506.836 184.2C509.757 184.2 512.023 184.969 513.635 186.508C515.247 188.046 516.142 189.794 516.32 191.752H513.274C512.928 190.265 512.237 189.088 511.201 188.219C510.175 187.35 508.731 186.916 506.868 186.916C504.596 186.916 502.759 187.717 501.357 189.318C499.965 190.909 499.269 193.353 499.269 196.65C499.269 199.351 499.897 201.544 501.153 203.229C502.419 204.904 504.303 205.741 506.805 205.741C509.108 205.741 510.861 204.857 512.065 203.088C512.703 202.156 513.179 200.932 513.493 199.414H516.539C516.267 201.842 515.367 203.878 513.839 205.521C512.007 207.5 509.537 208.489 506.428 208.489C503.749 208.489 501.498 207.678 499.677 206.055C497.28 203.909 496.081 200.597 496.081 196.117C496.081 192.715 496.981 189.925 498.782 187.748C500.729 185.383 503.414 184.2 506.836 184.2Z" fill="white"/>
<path d="M539.795 184.2C543.867 184.2 546.881 185.508 548.839 188.125C550.367 190.166 551.131 192.778 551.131 195.96C551.131 199.403 550.257 202.266 548.509 204.548C546.457 207.228 543.532 208.567 539.732 208.567C536.184 208.567 533.394 207.395 531.363 205.05C529.553 202.789 528.647 199.932 528.647 196.478C528.647 193.359 529.422 190.689 530.971 188.47C532.96 185.623 535.901 184.2 539.795 184.2ZM540.109 205.773C542.862 205.773 544.85 204.789 546.075 202.821C547.31 200.843 547.928 198.571 547.928 196.007C547.928 193.296 547.216 191.113 545.793 189.459C544.379 187.806 542.443 186.979 539.983 186.979C537.597 186.979 535.65 187.8 534.143 189.444C532.635 191.077 531.882 193.489 531.882 196.682C531.882 199.236 532.525 201.392 533.813 203.151C535.111 204.899 537.209 205.773 540.109 205.773Z" fill="white"/>
<path d="M564.275 184.828H568.75L575.375 204.328L581.954 184.828H586.382V207.892H583.414V194.28C583.414 193.809 583.425 193.029 583.446 191.94C583.467 190.852 583.477 189.685 583.477 188.439L576.898 207.892H573.805L567.18 188.439V189.145C567.18 189.711 567.19 190.574 567.211 191.736C567.242 192.887 567.258 193.735 567.258 194.28V207.892H564.275V184.828Z" fill="white"/>
<path d="M600.923 184.828H611.301C613.353 184.828 615.007 185.409 616.263 186.571C617.519 187.722 618.147 189.344 618.147 191.438C618.147 193.238 617.587 194.808 616.467 196.148C615.347 197.477 613.625 198.142 611.301 198.142H604.048V207.892H600.923V184.828ZM614.991 191.453C614.991 189.758 614.363 188.606 613.107 187.999C612.416 187.675 611.469 187.513 610.265 187.513H604.048V195.504H610.265C611.668 195.504 612.803 195.206 613.672 194.609C614.551 194.013 614.991 192.961 614.991 191.453Z" fill="white"/>
<path d="M641.01 198.44L637.508 188.251L633.787 198.44H641.01ZM635.876 184.828H639.408L647.777 207.892H644.354L642.015 200.984H632.892L630.396 207.892H627.193L635.876 184.828Z" fill="white"/>
<path d="M660.104 184.828H663.794L675.444 203.512V184.828H678.412V207.892H674.91L663.088 189.224V207.892H660.104V184.828Z" fill="white"/>
<path d="M691.038 184.828H694.68L701.306 195.913L707.932 184.828H711.59L702.876 198.597V207.892H699.751V198.597L691.038 184.828Z" fill="white"/>
</svg>
